Coordinates
version=1
nRows=14
nColumns=33
inDegrees=yes

Units are S.I. units (second, meters, Newtons, ...)
Angles are in degrees.

endheader
time	ground_thorax_rot_x	ground_thorax_rot_y	ground_thorax_rot_z	ground_thorax_tx	ground_thorax_ty	ground_thorax_tz	clav_prot_r	clav_elev_r	scapula_abduction_r	scapula_elevation_r	scapula_upward_rot_r	scapula_winging_r	shoulder_elv_r	plane_of_elev_r	axial_rot_r	elbow_flexion_r	pro_sup_r	wrist_flex_r	wrist_dev_r	clav_prot_l	clav_elev_l	scapula_abduction_l	scapula_elevation_l	scapula_upward_rot_l	scapula_winging_l	shoulder_elv_l	plane_of_elev_l	axial_rot_l	elbow_flexion_l	pro_sup_l	wrist_flex_l	wrist_dev_l	
6.5300	38.003205	14.995728	20.795968	-155.361742	799.824313	5.247420	14.656271	40.922916	40.014802	44.992643	-29.206810	1712.048907	-2817.614490	32.330553	49.242461	1810.987065	5.565266	17.387721	12.688476	6.074615	-45.000000	-35.637960	45.000000	-43.257205	-2428.427842	432.414811	21.794582	-52.685200	377.019079	96.549492	1.199352	-14.483400	
6.5400	37.871631	15.194881	21.146659	-151.688708	797.588393	5.320472	14.782277	40.978057	40.044378	44.986847	-29.201379	1712.247384	-2817.867909	32.237767	49.424407	1810.922697	6.488712	17.345453	12.812440	5.969735	-45.000000	-35.541599	45.000000	-43.454303	-2428.806712	432.081209	22.049908	-50.700934	374.717464	71.075124	3.640202	-15.681382	
6.5500	37.736002	15.398355	21.496787	-148.022909	795.371506	5.400974	14.864403	41.013117	40.055500	44.976367	-29.217399	1712.447357	-2818.124544	32.156025	49.640047	1810.837924	7.242131	17.289112	12.947389	5.908756	-45.000000	-35.456209	45.000000	-43.648148	-2429.171891	431.754279	22.259008	-49.031362	372.600374	48.312538	5.912701	-16.688813	
6.5600	37.593206	15.617625	21.859887	-144.371709	793.188672	5.490139	14.893750	41.018817	40.051703	44.957868	-29.268975	1712.633480	-2818.387042	32.093263	49.902957	1810.735874	7.849827	17.219770	13.081767	5.898056	-45.000000	-35.370765	45.000000	-43.882947	-2429.523124	431.445171	22.426572	-47.734427	370.737618	29.071958	7.927658	-17.471394	
6.5700	37.453547	15.813925	22.193806	-140.741888	791.055486	5.590617	14.921698	41.024478	40.054158	44.923969	-29.299605	1712.806572	-2818.660379	32.025839	50.237801	1810.616462	8.229116	17.133345	13.231036	5.888375	-45.000000	-35.302967	45.000000	-44.057213	-2429.865281	431.171908	22.487767	-47.124015	369.559060	17.911845	9.174910	-17.891289	
6.5800	37.317945	15.987334	22.500655	-137.139934	788.988106	5.706721	14.963238	41.026752	40.079755	44.865370	-29.290147	1712.959530	-2818.938563	31.931794	50.652792	1810.489981	8.500511	17.041766	13.376570	5.856808	-45.000000	-35.239211	45.000000	-44.202669	-2430.205611	430.934799	22.473372	-47.029605	368.948530	13.371130	9.768108	-18.038109	
6.5900	37.191432	16.101841	22.739116	-133.573343	787.004480	5.846159	15.035803	41.021767	40.154585	44.754477	-29.167978	1713.076135	-2819.217728	31.785614	51.163360	1810.365062	8.758533	16.955622	13.513311	5.772504	-45.000000	-35.198114	45.000000	-44.252752	-2430.543222	430.726809	22.394748	-47.315105	368.808802	14.148887	9.800357	-17.998271	
6.6000	37.058943	16.185617	22.934367	-130.052055	785.124678	6.020273	15.055431	40.970934	40.265280	44.572372	-28.965323	1713.140021	-2819.479520	31.607647	51.736999	1810.249702	9.181248	16.890595	13.603711	5.715446	-45.000000	-35.187749	45.000000	-44.275728	-2430.858250	430.524090	22.334873	-47.588929	368.672926	15.014711	9.813628	-17.967763	
6.6100	36.937610	16.183831	23.010499	-126.593609	783.378631	6.252085	15.071034	40.886421	40.443919	44.292096	-28.596595	1713.104942	-2819.742095	31.403279	52.394897	1810.139468	9.765042	16.846227	13.665487	5.630333	-45.000000	-35.241684	45.000000	-44.152176	-2431.163492	430.331364	22.264426	-47.868551	368.559739	15.964332	9.793851	-17.944450	
6.6200	36.835097	16.100708	22.957475	-123.221123	781.799487	6.569288	15.067231	40.768137	40.689656	43.911388	-28.046782	1712.961677	-2820.005463	31.172645	53.138521	1810.031799	10.506727	16.821649	13.686194	5.532249	-45.000000	-35.360563	45.000000	-43.896368	-2431.462016	430.147026	22.195627	-48.134026	368.477577	17.005616	9.745053	-17.925265	
6.6300	36.787144	15.905928	22.713930	-119.993669	780.469389	7.051825	15.091460	40.640039	41.030824	43.424634	-27.243718	1712.675577	-2820.285239	30.913747	53.985529	1809.923887	11.406673	16.813448	13.675088	5.367563	-45.000000	-35.545382	45.000000	-43.450705	-2431.776040	429.970714	22.107919	-48.410756	368.457462	18.154501	9.642814	-17.903054	
6.6400	36.808349	15.576020	22.222152	-116.954495	779.439756	7.747078	15.039926	40.500854	41.470610	42.816989	-26.096891	1712.232329	-2820.573666	30.608727	54.951697	1809.819967	12.495384	16.822247	13.598176	5.207076	-45.000000	-35.843246	45.000000	-42.743106	-2432.077985	429.767602	22.030063	-48.687746	368.510054	19.485323	9.497837	-17.877743	
6.6500	37.017766	15.107307	21.391945	-114.329275	779.041643	8.990548	15.015059	40.407737	42.053028	42.127273	-24.554450	1711.609141	-2820.885036	30.253544	56.015440	1809.708755	13.731257	16.834777	13.486639	4.972583	-45.000000	-36.221216	45.000000	-41.761625	-2432.442106	429.528299	21.898472	-49.087165	368.742421	20.943413	9.267692	-17.806016	
6.6600	37.370878	14.521375	20.261694	-112.053927	779.179503	10.659220	14.918350	40.342493	42.733116	41.373820	-22.633486	1710.845445	-2821.202538	29.843795	57.163707	1809.592072	15.087668	16.848007	13.328213	4.748587	-45.000000	-36.723420	45.000000	-40.499165	-2432.828740	429.239951	21.743664	-49.551650	369.105067	22.470625	8.995176	-17.699484	
